<?xml version="1.0" standalone="no"?>
<!DOCTYPE svg PUBLIC "-//W3C//DTD SVG 20010904//EN"
 "http://www.w3.org/TR/2001/REC-SVG-20010904/DTD/svg10.dtd">
<svg version="1.0" xmlns="http://www.w3.org/2000/svg"
 width="800.000000pt" height="800.000000pt" viewBox="0 0 800.000000 800.000000"
 preserveAspectRatio="xMidYMid meet">
<metadata>
Created by potrace 1.14, written by Peter Selinger 2001-2017
</metadata>
<g transform="translate(0.000000,800.000000) scale(0.100000,-0.100000)"
fill="#000000" stroke="none">
<path d="M889 7996 c-2 -2 -23 -6 -47 -10 -58 -8 -116 -23 -182 -48 -314 -117
-538 -364 -631 -698 l-24 -85 -2 -3125 c-3 -3342 -5 -3173 44 -3330 29 -95 96
-224 157 -305 57 -74 163 -172 247 -227 96 -63 167 -95 294 -135 l90 -28 3155
0 3155 0 90 24 c249 65 451 207 594 414 56 82 114 211 140 312 5 22 14 54 18
70 4 17 9 1434 10 3150 2 3337 5 3168 -44 3325 -58 188 -189 373 -350 494
-129 97 -245 149 -413 187 -82 18 -184 18 -3191 19 -1708 0 -3108 -2 -3110 -4z"/>
</g>
</svg>
